{"title":"[MARATHI] Mangalashtak Once More Non-Retail DVD-R (2013) [MDG]","uid":9683258,"size":1079869440,"categoryP":"video","categoryS":"movies_dvdr","magnet":"?xt=urn:btih:82e7ab8d01c840327bde8809dbc8735c4a656904&amp;dn=%5BMARATHI%5D+Mangalashtak+Once+More+Non-Retail+DVD-R+%282013%29+%5BMDG%5D&amp;tr=udp%3A%2F%2Ftracker.openbittorrent.com%3A80&amp;tr=udp%3A%2F%2Fopen.demonii.com%3A1337&amp;tr=udp%3A%2F%2Ftracker.coppersurfer.tk%3A6969&amp;tr=udp%3A%2F%2Fexodus.desync.com%3A6969","seeders":2,"leechers":0,"uploader":"SJonam","files":1,"time":1393704187,"description":"It's MDG Special...\n\nCast - \nDirector:\nSamir Joshi \n\nStars:\nMukta Barve, Swapnil Joshi, Kadambari Kadam, Sai Tamhankar\n\n\nGenres:\nRomance \n\nRelease Date:\n22 November 2013 (India)\n\nMedia Info - \nGeneral\nComplete name : Mangalashtak Once More - Untouched DVDScr/VTS_02_1.VOB\nFormat : MPEG-PS\nFile size : 1.01 GiB\nDuration : 2h 1mn\nOverall bit rate mode : Variable\nOverall bit rate : 1 183 Kbps\n\nVideo\nID : 224 (0xE0)\nFormat : MPEG Video\nFormat version : Version 2\nFormat profile : Main@Main\nFormat settings, BVOP : No\nFormat settings, Matrix : Default\nFormat settings, GOP : Variable\nDuration : 2h 1mn\nBit rate mode : Variable\nBit rate : 1 031 Kbps\nMaximum bit rate : 9 000 Kbps\nWidth : 720 pixels\nHeight : 576 pixels\nDisplay aspect ratio : 16:9\nFrame rate : 25.000 fps\nStandard : PAL\nColor space : YUV\nChroma subsampling : 4:2:0\nBit depth : 8 bits\nScan type : Progressive\nCompression mode : Lossy\nBits/(Pixel*Frame) : 0.099\nStream size : 898 MiB (87%)\n\nAudio\nID : 189 (0xBD)-128 (0x80)\nFormat : AC-3\nFormat/Info : Audio Coding 3\nMode extension : CM (complete main)\nFormat settings, Endianness : Big\nMuxing mode : DVD-Video\nDuration : 2h 1mn\nBit rate mode : Constant\nBit rate : 128 Kbps\nChannel(s) : 2 channels\nChannel positions : Front: L R\nSampling rate : 48.0 KHz\nBit depth : 16 bits\nCompression mode : Lossy\nStream size : 111 MiB (11%)\n\nScreenshots -  &lt;a href=&quot;\nhttp://someimage.com/WLlFONc&quot; rel=&quot;nofollow&quot; target=&quot;_NEW&quot;&gt;\nhttp://someimage.com/WLlFONc&lt;/a&gt; &lt;a href=&quot;\nhttp://someimage.com/jJ84jvx&quot; rel=&quot;nofollow&quot; target=&quot;_NEW&quot;&gt;\nhttp://someimage.com/jJ84jvx&lt;/a&gt; &lt;a href=&quot;\nhttp://someimage.com/Am8Nd4J&quot; rel=&quot;nofollow&quot; target=&quot;_NEW&quot;&gt;\nhttp://someimage.com/Am8Nd4J&lt;/a&gt; &lt;a href=&quot;\nhttp://someimage.com/VVzoSA4&quot; rel=&quot;nofollow&quot; target=&quot;_NEW&quot;&gt;\nhttp://someimage.com/VVzoSA4&lt;/a&gt; &lt;a href=&quot;\nhttp://someimage.com/hpeaegY&quot; rel=&quot;nofollow&quot; target=&quot;_NEW&quot;&gt;\nhttp://someimage.com/hpeaegY&lt;/a&gt; &lt;a href=&quot;\nhttp://someimage.com/o2xwY9t&quot; rel=&quot;nofollow&quot; target=&quot;_NEW&quot;&gt;\nhttp://someimage.com/o2xwY9t&lt;/a&gt;\n\n\nSpecial thanks to Nordmariner for the Untouched source\n\n\nEnjoy MDG release from TMB guys... ;)","torrent":{"xt":"urn:btih:82e7ab8d01c840327bde8809dbc8735c4a656904","amp;dn":"%5BMARATHI%5D+Mangalashtak+Once+More+Non-Retail+DVD-R+%282013%29+%5BMDG%5D","amp;tr":["udp%3A%2F%2Ftracker.openbittorrent.com%3A80","udp%3A%2F%2Fopen.demonii.com%3A1337","udp%3A%2F%2Ftracker.coppersurfer.tk%3A6969","udp%3A%2F%2Fexodus.desync.com%3A6969"],"infoHash":"82e7ab8d01c840327bde8809dbc8735c4a656904","infoHashBuffer":{"type":"Buffer","data":[130,231,171,141,1,200,64,50,123,222,136,9,219,200,115,92,74,101,105,4]},"announce":[],"urlList":[]}}